<svg width="1252" height="982" xmlns="http://www.w3.org/2000/svg" xmlns:xlink="http://www.w3.org/1999/xlink" overflow="hidden"><defs><clipPath id="clip0"><rect x="35" y="3" width="1252" height="982"/></clipPath></defs><g clip-path="url(#clip0)" transform="translate(-35 -3)"><text font-family="Yu Gothic,Yu Gothic_MSFontService,sans-serif" font-weight="400" font-size="32" transform="translate(54.9854 127)">ＸＸ</text><text font-family="Yu Gothic,Yu Gothic_MSFontService,sans-serif" font-weight="400" font-size="32" transform="translate(126.152 127)">商店</text><text font-family="Yu Gothic,Yu Gothic_MSFontService,sans-serif" font-weight="400" font-size="32" transform="translate(197.319 127)">ＹＹ</text><text font-family="Yu Gothic,Yu Gothic_MSFontService,sans-serif" font-weight="400" font-size="32" transform="translate(268.485 127)">支店</text><path d="M54.9854 129.55 118.985 129.55 118.985 131.55 54.9854 131.55Z" fill-rule="evenodd"/><path d="M125.985 129.55 189.985 129.55 189.985 131.55 125.985 131.55Z" fill-rule="evenodd"/><path d="M196.985 129.55 260.985 129.55 260.985 131.55 196.985 131.55Z" fill-rule="evenodd"/><path d="M268.985 129.55 332.985 129.55 332.985 131.55 268.985 131.55Z" fill-rule="evenodd"/><path d="M87.0001 132.5 87.0001 170.354 84.0001 170.354 84.0001 132.5ZM90.0001 168.854 85.5002 177.854 81.0001 168.854Z"/><rect x="70.5001" y="178.5" width="31" height="31" stroke="#000000" stroke-width="1.33333" stroke-miterlimit="8" fill="none"/><rect x="70.5001" y="209.5" width="31" height="31" stroke="#000000" stroke-width="1.33333" stroke-miterlimit="8" fill="none"/><rect x="70.5001" y="240.5" width="31" height="31" stroke="#000000" stroke-width="1.33333" stroke-miterlimit="8" fill="none"/><rect x="70.5001" y="302.5" width="31" height="32" stroke="#000000" stroke-width="1.33333" stroke-miterlimit="8" fill="none"/><rect x="70.5001" y="334.5" width="31" height="31" stroke="#000000" stroke-width="1.33333" stroke-miterlimit="8" fill="none"/><rect x="70.5001" y="365.5" width="31" height="31" stroke="#000000" stroke-width="1.33333" stroke-miterlimit="8" fill="none"/><path d="M162 132.5 162 170.354 159 170.354 159 132.5ZM165 168.854 160.5 177.854 156 168.854Z"/><rect x="144.5" y="178.5" width="31" height="31" stroke="#000000" stroke-width="1.33333" stroke-miterlimit="8" fill="none"/><rect x="144.5" y="209.5" width="31" height="31" stroke="#000000" stroke-width="1.33333" stroke-miterlimit="8" fill="none"/><rect x="144.5" y="240.5" width="31" height="31" stroke="#000000" stroke-width="1.33333" stroke-miterlimit="8" fill="none"/><rect x="144.5" y="302.5" width="31" height="32" stroke="#000000" stroke-width="1.33333" stroke-miterlimit="8" fill="none"/><rect x="144.5" y="334.5" width="31" height="31" stroke="#000000" stroke-width="1.33333" stroke-miterlimit="8" fill="none"/><rect x="144.5" y="365.5" width="31" height="31" stroke="#000000" stroke-width="1.33333" stroke-miterlimit="8" fill="none"/><path d="M235 132.5 235 170.354 232 170.354 232 132.5ZM238 168.854 233.5 177.854 229 168.854Z"/><rect x="217.5" y="178.5" width="31" height="31" stroke="#000000" stroke-width="1.33333" stroke-miterlimit="8" fill="none"/><rect x="217.5" y="209.5" width="31" height="31" stroke="#000000" stroke-width="1.33333" stroke-miterlimit="8" fill="none"/><rect x="217.5" y="240.5" width="31" height="31" stroke="#000000" stroke-width="1.33333" stroke-miterlimit="8" fill="none"/><rect x="217.5" y="302.5" width="31" height="32" stroke="#000000" stroke-width="1.33333" stroke-miterlimit="8" fill="none"/><rect x="217.5" y="334.5" width="31" height="31" stroke="#000000" stroke-width="1.33333" stroke-miterlimit="8" fill="none"/><rect x="217.5" y="365.5" width="31" height="31" stroke="#000000" stroke-width="1.33333" stroke-miterlimit="8" fill="none"/><path d="M307 132.5 307 170.354 304 170.354 304 132.5ZM310 168.854 305.5 177.854 301 168.854Z"/><rect x="290.5" y="178.5" width="31" height="31" stroke="#000000" stroke-width="1.33333" stroke-miterlimit="8" fill="none"/><rect x="290.5" y="209.5" width="31" height="31" stroke="#000000" stroke-width="1.33333" stroke-miterlimit="8" fill="none"/><rect x="290.5" y="240.5" width="31" height="31" stroke="#000000" stroke-width="1.33333" stroke-miterlimit="8" fill="none"/><rect x="290.5" y="302.5" width="31" height="32" stroke="#000000" stroke-width="1.33333" stroke-miterlimit="8" fill="none"/><rect x="290.5" y="334.5" width="31" height="31" stroke="#000000" stroke-width="1.33333" stroke-miterlimit="8" fill="none"/><rect x="290.5" y="365.5" width="31" height="31" stroke="#000000" stroke-width="1.33333" stroke-miterlimit="8" fill="none"/><rect x="360.5" y="178.5" width="32" height="31" stroke="#000000" stroke-width="1.33333" stroke-miterlimit="8" fill="none"/><text font-family="Calibri,Calibri_MSFontService,sans-serif" font-weight="400" font-size="21" transform="translate(371.45 202)">0</text><rect x="360.5" y="210.5" width="32" height="31" stroke="#000000" stroke-width="1.33333" stroke-miterlimit="8" fill="none"/><text font-family="Calibri,Calibri_MSFontService,sans-serif" font-weight="400" font-size="21" transform="translate(371.45 234)">0</text><rect x="360.5" y="241.5" width="32" height="31" stroke="#000000" stroke-width="1.33333" stroke-miterlimit="8" fill="none"/><text font-family="Calibri,Calibri_MSFontService,sans-serif" font-weight="400" font-size="21" transform="translate(371.45 265)">0</text><rect x="360.5" y="303.5" width="32" height="31" stroke="#000000" stroke-width="1.33333" stroke-miterlimit="8" fill="none"/><text font-family="Calibri,Calibri_MSFontService,sans-serif" font-weight="400" font-size="21" transform="translate(371.45 327)">0</text><rect x="360.5" y="334.5" width="32" height="31" stroke="#000000" stroke-width="1.33333" stroke-miterlimit="8" fill="none"/><text font-family="Calibri,Calibri_MSFontService,sans-serif" font-weight="400" font-size="21" transform="translate(371.45 358)">0</text><rect x="360.5" y="365.5" width="32" height="31" stroke="#000000" stroke-width="1.33333" stroke-miterlimit="8" fill="none"/><text font-family="Calibri,Calibri_MSFontService,sans-serif" font-weight="400" font-size="21" transform="translate(371.45 389)">0</text><rect x="494.5" y="178.5" width="31" height="31" stroke="#000000" stroke-width="1.33333" stroke-miterlimit="8" fill="none"/><text font-family="Calibri,Calibri_MSFontService,sans-serif" font-weight="400" font-size="21" transform="translate(504.62 202)">0</text><rect x="494.5" y="210.5" width="31" height="31" stroke="#000000" stroke-width="1.33333" stroke-miterlimit="8" fill="none"/><text font-family="Calibri,Calibri_MSFontService,sans-serif" font-weight="400" font-size="21" transform="translate(504.62 234)">0</text><rect x="494.5" y="241.5" width="31" height="31" stroke="#000000" stroke-width="1.33333" stroke-miterlimit="8" fill="none"/><text font-family="Calibri,Calibri_MSFontService,sans-serif" font-weight="400" font-size="21" transform="translate(504.62 265)">0</text><rect x="494.5" y="303.5" width="31" height="31" stroke="#000000" stroke-width="1.33333" stroke-miterlimit="8" fill="none"/><text font-family="Calibri,Calibri_MSFontService,sans-serif" font-weight="400" font-size="21" transform="translate(504.62 327)">0</text><rect x="494.5" y="334.5" width="31" height="31" stroke="#000000" stroke-width="1.33333" stroke-miterlimit="8" fill="none"/><text font-family="Calibri,Calibri_MSFontService,sans-serif" font-weight="400" font-size="21" transform="translate(504.62 358)">0</text><rect x="494.5" y="365.5" width="31" height="31" stroke="#000000" stroke-width="1.33333" stroke-miterlimit="8" fill="none"/><text font-family="Calibri,Calibri_MSFontService,sans-serif" font-weight="400" font-size="21" transform="translate(504.62 389)">0</text><path d="M357 414 535.936 414" stroke="#000000" stroke-width="2" stroke-miterlimit="8" fill="none" fill-rule="evenodd"/><path d="M358.032 415 351 402" stroke="#000000" stroke-width="2" stroke-miterlimit="8" fill="none" fill-rule="evenodd"/><path d="M0 0 7.03192 13" stroke="#000000" stroke-width="2" stroke-miterlimit="8" fill="none" fill-rule="evenodd" transform="matrix(1 0 0 -1 536 415)"/><text font-family="Times New Roman,Times New Roman_MSFontService,sans-serif" font-weight="400" font-size="21" transform="translate(412.21 440)">padding</text><path d="M65 414 322.28 414" stroke="#000000" stroke-width="2" stroke-miterlimit="8" fill="none" fill-rule="evenodd"/><path d="M65.1108 415 55 402" stroke="#000000" stroke-width="2" stroke-miterlimit="8" fill="none" fill-rule="evenodd"/><path d="M0 0 10.1108 13" stroke="#000000" stroke-width="2" stroke-miterlimit="8" fill="none" fill-rule="evenodd" transform="matrix(1 0 0 -1 321 415)"/><text font-family="Times New Roman,Times New Roman_MSFontService,sans-serif" font-weight="400" font-size="21" transform="translate(135.868 440)">Word vectors</text><path d="M62 462 536.354 462.739" stroke="#000000" stroke-width="2" stroke-miterlimit="8" fill="none" fill-rule="evenodd"/><path d="M63.1108 463 53 450" stroke="#000000" stroke-width="2" stroke-miterlimit="8" fill="none" fill-rule="evenodd"/><path d="M0 0 10.1108 13" stroke="#000000" stroke-width="2" stroke-miterlimit="8" fill="none" fill-rule="evenodd" transform="matrix(1 0 0 -1 535 463)"/><text font-family="Times New Roman,Times New Roman_MSFontService,sans-serif" font-weight="400" font-size="21" transform="translate(249.562 488)">40 columns</text><path d="M544 390.945 544 182" stroke="#000000" stroke-width="2" stroke-miterlimit="8" fill="none" fill-rule="evenodd"/><path d="M545 390 532 398.211" stroke="#000000" stroke-width="2" stroke-miterlimit="8" fill="none" fill-rule="evenodd"/><path d="M0 0 8.21123 12.9999" stroke="#000000" stroke-width="2" stroke-miterlimit="8" fill="none" fill-rule="evenodd" transform="matrix(-1.83697e-16 -1 -1 1.83697e-16 544 182.211)"/><text font-family="Times New Roman,Times New Roman_MSFontService,sans-serif" font-weight="400" font-size="21" transform="translate(561.23 281)">200</text><text font-family="Times New Roman,Times New Roman_MSFontService,sans-serif" font-weight="400" font-size="21" transform="translate(556.477 306)">rows</text><rect x="44.5001" y="163.5" width="567" height="339" stroke="#0070C0" stroke-width="3" stroke-miterlimit="8" fill="none"/><text fill="#0070C0" font-family="Times New Roman,Times New Roman_MSFontService,sans-serif" font-weight="400" font-size="24" transform="translate(498.986 530)">Input Data</text><rect x="685.5" y="208.5" width="214" height="214" stroke="#0070C0" stroke-width="3" stroke-miterlimit="8" fill="#FFFFFF"/><rect x="701.5" y="224.5" width="214" height="214" stroke="#0070C0" stroke-width="3" stroke-miterlimit="8" fill="#FFFFFF"/><rect x="717.5" y="240.5" width="214" height="214" stroke="#0070C0" stroke-width="3" stroke-miterlimit="8" fill="#FFFFFF"/><path d="M611 163 717.716 240.663" stroke="#4472C4" stroke-width="2" stroke-miterlimit="8" fill="none" fill-rule="evenodd"/><path d="M0 0 106.716 48.0433" stroke="#4472C4" stroke-width="2" stroke-miterlimit="8" fill="none" fill-rule="evenodd" transform="matrix(1 0 0 -1 611 502.043)"/><text font-family="Times New Roman,Times New Roman_MSFontService,sans-serif" font-weight="400" font-size="21" transform="translate(719.478 184)">Convolutional Layer</text><rect x="829.5" y="278.5" width="78" height="79" stroke="#548235" stroke-width="1.33333" stroke-miterlimit="8" fill="#70AD47"/><rect x="983.5" y="227.5" width="166" height="166" stroke="#00B050" stroke-width="3" stroke-miterlimit="8" fill="#FFFFFF"/><rect x="999.5" y="243.5" width="166" height="166" stroke="#00B050" stroke-width="3" stroke-miterlimit="8" fill="#FFFFFF"/><rect x="1015.5" y="259.5" width="166" height="166" stroke="#00B050" stroke-width="3" stroke-miterlimit="8" fill="#FFFFFF"/><path d="M907 279 1129.96 290.286" stroke="#548235" stroke-width="2" stroke-miterlimit="8" fill="none" fill-rule="evenodd"/><path d="M0 0 223.148 43.3815" stroke="#548235" stroke-width="2" stroke-miterlimit="8" fill="none" fill-rule="evenodd" transform="matrix(1 0 0 -1 907 356.382)"/><text font-family="Times New Roman,Times New Roman_MSFontService,sans-serif" font-weight="400" font-size="21" transform="translate(999.088 187)">Max Pooling Layer</text><rect x="830.5" y="278.5" width="26" height="27" stroke="#548235" stroke-width="1.33333" stroke-miterlimit="8" fill="#70AD47"/><rect x="830.5" y="304.5" width="26" height="26" stroke="#548235" stroke-width="1.33333" stroke-miterlimit="8" fill="#70AD47"/><rect x="830.5" y="330.5" width="26" height="26" stroke="#548235" stroke-width="1.33333" stroke-miterlimit="8" fill="#70AD47"/><rect x="855.5" y="278.5" width="26" height="27" stroke="#548235" stroke-width="1.33333" stroke-miterlimit="8" fill="#70AD47"/><rect x="855.5" y="304.5" width="26" height="26" stroke="#548235" stroke-width="1.33333" stroke-miterlimit="8" fill="#70AD47"/><rect x="855.5" y="330.5" width="26" height="26" stroke="#548235" stroke-width="1.33333" stroke-miterlimit="8" fill="#70AD47"/><rect x="881.5" y="278.5" width="26" height="27" stroke="#548235" stroke-width="1.33333" stroke-miterlimit="8" fill="#70AD47"/><rect x="881.5" y="304.5" width="26" height="26" stroke="#548235" stroke-width="1.33333" stroke-miterlimit="8" fill="#70AD47"/><rect x="881.5" y="330.5" width="26" height="26" stroke="#548235" stroke-width="1.33333" stroke-miterlimit="8" fill="#70AD47"/><rect x="654.5" y="140.5" width="574" height="387" stroke="#000000" stroke-width="3" stroke-miterlimit="8" fill="none"/><text font-family="Yu Gothic,Yu Gothic_MSFontService,sans-serif" font-weight="400" font-size="32" transform="translate(1161.59 511)">×</text><text font-family="Times New Roman,Times New Roman_MSFontService,sans-serif" font-weight="400" font-size="32" transform="translate(1193.59 511)">2</text><path d="M685.5 527.5 685.5 727.815" stroke="#000000" stroke-width="3" stroke-miterlimit="8" fill="none" fill-rule="evenodd"/><path d="M7.5-1.49999 56.6929-1.49989 56.6929 1.5001 7.5 1.50001ZM8.99999 4.50002 0 0 9.00001-4.49998Z" transform="matrix(-1 0 0 1 741.193 726.5)"/><rect x="765.5" y="570.5" width="44" height="44" stroke="#000000" stroke-width="1.33333" stroke-miterlimit="8" fill="none"/><rect x="765.5" y="614.5" width="44" height="45" stroke="#000000" stroke-width="1.33333" stroke-miterlimit="8" fill="none"/><rect x="765.5" y="659.5" width="44" height="44" stroke="#000000" stroke-width="1.33333" stroke-miterlimit="8" fill="none"/><rect x="765.5" y="747.5" width="44" height="45" stroke="#000000" stroke-width="1.33333" stroke-miterlimit="8" fill="none"/><rect x="765.5" y="792.5" width="44" height="44" stroke="#000000" stroke-width="1.33333" stroke-miterlimit="8" fill="none"/><rect x="765.5" y="836.5" width="44" height="44" stroke="#000000" stroke-width="1.33333" stroke-miterlimit="8" fill="none"/><text font-family="Yu Gothic,Yu Gothic_MSFontService,sans-serif" font-weight="400" font-size="37" transform="matrix(0 1 -1 0 774.087 706)">…</text><text font-family="Times New Roman,Times New Roman_MSFontService,sans-serif" font-weight="400" font-size="21" transform="translate(759.464 915)">Flatten</text><text font-family="Times New Roman,Times New Roman_MSFontService,sans-serif" font-weight="400" font-size="21" transform="translate(764.298 940)">Layer</text><rect x="924.5" y="613.5" width="44" height="44" stroke="#000000" stroke-width="1.33333" stroke-miterlimit="8" fill="none"/><rect x="924.5" y="657.5" width="44" height="45" stroke="#000000" stroke-width="1.33333" stroke-miterlimit="8" fill="none"/><rect x="924.5" y="702.5" width="44" height="44" stroke="#000000" stroke-width="1.33333" stroke-miterlimit="8" fill="none"/><rect x="924.5" y="745.5" width="44" height="45" stroke="#000000" stroke-width="1.33333" stroke-miterlimit="8" fill="none"/><rect x="924.5" y="790.5" width="44" height="44" stroke="#000000" stroke-width="1.33333" stroke-miterlimit="8" fill="none"/><rect x="1045.5" y="614.5" width="44" height="44" stroke="#000000" stroke-width="1.33333" stroke-miterlimit="8" fill="none"/><rect x="1045.5" y="658.5" width="44" height="45" stroke="#000000" stroke-width="1.33333" stroke-miterlimit="8" fill="none"/><rect x="1045.5" y="703.5" width="44" height="44" stroke="#000000" stroke-width="1.33333" stroke-miterlimit="8" fill="none"/><rect x="1045.5" y="747.5" width="44" height="45" stroke="#000000" stroke-width="1.33333" stroke-miterlimit="8" fill="none"/><rect x="1045.5" y="792.5" width="44" height="44" stroke="#000000" stroke-width="1.33333" stroke-miterlimit="8" fill="none"/><text font-family="Times New Roman,Times New Roman_MSFontService,sans-serif" font-weight="400" font-size="21" transform="translate(918.5 881)">Dense</text><text font-family="Times New Roman,Times New Roman_MSFontService,sans-serif" font-weight="400" font-size="21" transform="translate(920.253 906)">Layer</text><text font-family="Times New Roman,Times New Roman_MSFontService,sans-serif" font-weight="400" font-size="21" transform="translate(1031.16 880)">Softmax</text><text font-family="Times New Roman,Times New Roman_MSFontService,sans-serif" font-weight="400" font-size="21" transform="translate(1042.5 905)">Layer</text><path d="M7.5-1.49998 34.0158-1.49989 34.0157 1.5001 7.49999 1.50002ZM8.99999 4.50003 0 0 9.00001-4.49997Z" transform="matrix(-1 0 0 1 1022.52 725.5)"/><path d="M809.5 592.5 923.675 635.706" stroke="#000000" stroke-width="0.666667" stroke-miterlimit="8" fill="none" fill-rule="evenodd"/><path d="M809.5 592.5 923.675 680.009" stroke="#000000" stroke-width="0.666667" stroke-miterlimit="8" fill="none" fill-rule="evenodd"/><path d="M809.5 592.5 923.675 724.312" stroke="#000000" stroke-width="0.666667" stroke-miterlimit="8" fill="none" fill-rule="evenodd"/><path d="M809.5 592.5 923.675 768.009" stroke="#000000" stroke-width="0.666667" stroke-miterlimit="8" fill="none" fill-rule="evenodd"/><path d="M809.5 592.5 923.675 812.312" stroke="#000000" stroke-width="0.666667" stroke-miterlimit="8" fill="none" fill-rule="evenodd"/><path d="M0 0 114.175 1.09711" stroke="#000000" stroke-width="0.666667" stroke-miterlimit="8" fill="none" fill-rule="evenodd" transform="matrix(1 0 0 -1 809.5 636.597)"/><path d="M809.5 636.5 923.675 679.706" stroke="#000000" stroke-width="0.666667" stroke-miterlimit="8" fill="none" fill-rule="evenodd"/><path d="M809.5 636.5 923.675 724.008" stroke="#000000" stroke-width="0.666667" stroke-miterlimit="8" fill="none" fill-rule="evenodd"/><path d="M809.5 636.5 923.675 767.706" stroke="#000000" stroke-width="0.666667" stroke-miterlimit="8" fill="none" fill-rule="evenodd"/><path d="M809.5 636.5 923.675 812.009" stroke="#000000" stroke-width="0.666667" stroke-miterlimit="8" fill="none" fill-rule="evenodd"/><path d="M0 0 114.175 89.7031" stroke="#000000" stroke-width="0.666667" stroke-miterlimit="8" fill="none" fill-rule="evenodd" transform="matrix(1 0 0 -1 809.5 814.203)"/><path d="M0 0 114.175 134.006" stroke="#000000" stroke-width="0.666667" stroke-miterlimit="8" fill="none" fill-rule="evenodd" transform="matrix(1 0 0 -1 809.5 814.506)"/><path d="M0 0 114.175 178.309" stroke="#000000" stroke-width="0.666667" stroke-miterlimit="8" fill="none" fill-rule="evenodd" transform="matrix(1 0 0 -1 809.5 813.809)"/><path d="M809.5 769.5 923.675 812.1" stroke="#000000" stroke-width="0.666667" stroke-miterlimit="8" fill="none" fill-rule="evenodd"/><path d="M0 0 114.175 1.70289" stroke="#000000" stroke-width="0.666667" stroke-miterlimit="8" fill="none" fill-rule="evenodd" transform="matrix(1 0 0 -1 809.5 770.203)"/><path d="M0 0 114.175 45.4003" stroke="#000000" stroke-width="0.666667" stroke-miterlimit="8" fill="none" fill-rule="evenodd" transform="matrix(1 0 0 -1 809.5 769.9)"/><path d="M0 0 114.175 89.7031" stroke="#000000" stroke-width="0.666667" stroke-miterlimit="8" fill="none" fill-rule="evenodd" transform="matrix(1 0 0 -1 809.5 770.203)"/><path d="M0 0 114.175 134.006" stroke="#000000" stroke-width="0.666667" stroke-miterlimit="8" fill="none" fill-rule="evenodd" transform="matrix(1 0 0 -1 809.5 769.506)"/><path d="M809.5 681.5 923.675 812.706" stroke="#000000" stroke-width="0.666667" stroke-miterlimit="8" fill="none" fill-rule="evenodd"/><path d="M809.5 681.5 923.675 768.403" stroke="#000000" stroke-width="0.666667" stroke-miterlimit="8" fill="none" fill-rule="evenodd"/><path d="M809.5 681.5 923.675 724.706" stroke="#000000" stroke-width="0.666667" stroke-miterlimit="8" fill="none" fill-rule="evenodd"/><path d="M0 0 114.175 1.09711" stroke="#000000" stroke-width="0.666667" stroke-miterlimit="8" fill="none" fill-rule="evenodd" transform="matrix(1 0 0 -1 809.5 681.597)"/><path d="M0 0 114.175 45.4003" stroke="#000000" stroke-width="0.666667" stroke-miterlimit="8" fill="none" fill-rule="evenodd" transform="matrix(1 0 0 -1 809.5 680.9)"/><path d="M0 0 114.175 46.0061" stroke="#000000" stroke-width="0.666667" stroke-miterlimit="8" fill="none" fill-rule="evenodd" transform="matrix(1 0 0 -1 809.5 858.506)"/><path d="M0 0 114.175 90.3089" stroke="#000000" stroke-width="0.666667" stroke-miterlimit="8" fill="none" fill-rule="evenodd" transform="matrix(1 0 0 -1 809.5 858.809)"/><path d="M0 0 114.175 134.006" stroke="#000000" stroke-width="0.666667" stroke-miterlimit="8" fill="none" fill-rule="evenodd" transform="matrix(-1 0 0 1 923.675 724.5)"/><path d="M0 0 114.175 178.309" stroke="#000000" stroke-width="0.666667" stroke-miterlimit="8" fill="none" fill-rule="evenodd" transform="matrix(1 0 0 -1 809.5 858.809)"/><path d="M0 0 114.175 222.612" stroke="#000000" stroke-width="0.666667" stroke-miterlimit="8" fill="none" fill-rule="evenodd" transform="matrix(1 0 0 -1 809.5 858.112)"/><path d="M0 0 114.175 1.70289" stroke="#000000" stroke-width="0.666667" stroke-miterlimit="8" fill="none" fill-rule="evenodd" transform="matrix(1 0 0 -1 809.5 814.203)"/><path d="M0 0 114.175 46.0061" stroke="#000000" stroke-width="0.666667" stroke-miterlimit="8" fill="none" fill-rule="evenodd" transform="matrix(1 0 0 -1 809.5 814.506)"/><text font-family="Yu Gothic,Yu Gothic_MSFontService,sans-serif" font-weight="400" font-size="27" transform="matrix(0 1 -1 0 76.5591 273)">…</text><text font-family="Yu Gothic,Yu Gothic_MSFontService,sans-serif" font-weight="400" font-size="27" transform="matrix(0 1 -1 0 150.787 274)">…</text><text font-family="Yu Gothic,Yu Gothic_MSFontService,sans-serif" font-weight="400" font-size="27" transform="matrix(0 1 -1 0 223.869 273)">…</text><text font-family="Yu Gothic,Yu Gothic_MSFontService,sans-serif" font-weight="400" font-size="27" transform="matrix(0 1 -1 0 295.696 273)">…</text><text font-family="Yu Gothic,Yu Gothic_MSFontService,sans-serif" font-weight="400" font-size="27" transform="matrix(0 1 -1 0 366.483 274)">…</text><text font-family="Yu Gothic,Yu Gothic_MSFontService,sans-serif" font-weight="400" font-size="27" transform="matrix(0 1 -1 0 500.627 274)">…</text><text font-family="Yu Gothic,Yu Gothic_MSFontService,sans-serif" font-weight="400" font-size="27" transform="translate(416.03 295)">……</text><path d="M44.0524 669.355 610.665 669.355" stroke="#000000" stroke-width="1.33333" stroke-linejoin="round" stroke-miterlimit="10" fill="none" fill-rule="evenodd"/><path d="M44.0524 627.755 610.665 627.755" stroke="#000000" stroke-width="1.33333" stroke-linejoin="round" stroke-miterlimit="10" fill="none" fill-rule="evenodd"/><path d="M44.0524 877.355 610.665 877.355" stroke="#000000" stroke-width="1.33333" stroke-linejoin="round" stroke-miterlimit="10" fill="none" fill-rule="evenodd"/><text font-family="Times New Roman,Times New Roman_MSFontService,sans-serif" font-weight="400" font-size="27" transform="translate(149.506 659)">Hyper Parameter</text><text font-family="Times New Roman,Times New Roman_MSFontService,sans-serif" font-weight="400" font-size="27" transform="translate(493.039 659)">Value</text><text font-family="Times New Roman,Times New Roman_MSFontService,sans-serif" font-weight="400" font-size="27" transform="translate(110.839 700)">Convolutional filter size</text><text font-family="Times New Roman,Times New Roman_MSFontService,sans-serif" font-weight="400" font-size="27" transform="translate(496.729 699)">3</text><text font-family="Yu Gothic,Yu Gothic_MSFontService,sans-serif" font-weight="400" font-size="27" transform="translate(510.062 699)">×</text><text font-family="Times New Roman,Times New Roman_MSFontService,sans-serif" font-weight="400" font-size="27" transform="translate(536.729 699)">3</text><text font-family="Times New Roman,Times New Roman_MSFontService,sans-serif" font-weight="400" font-size="27" transform="translate(96.7558 742)">Convolutional filter counts</text><text font-family="Times New Roman,Times New Roman_MSFontService,sans-serif" font-weight="400" font-size="27" transform="translate(503.396 742)">100</text><text font-family="Times New Roman,Times New Roman_MSFontService,sans-serif" font-weight="400" font-size="27" transform="translate(174.672 783)">Pooling size</text><text font-family="Times New Roman,Times New Roman_MSFontService,sans-serif" font-weight="400" font-size="27" transform="translate(490.062 782)">38</text><text font-family="Yu Gothic,Yu Gothic_MSFontService,sans-serif" font-weight="400" font-size="27" transform="translate(516.729 782)">×</text><text font-family="Times New Roman,Times New Roman_MSFontService,sans-serif" font-weight="400" font-size="27" transform="translate(543.396 782)">1</text><text font-family="Times New Roman,Times New Roman_MSFontService,sans-serif" font-weight="400" font-size="27" transform="translate(172.422 825)">Dropout rate</text><text font-family="Times New Roman,Times New Roman_MSFontService,sans-serif" font-weight="400" font-size="27" transform="translate(500.062 825)">0.33</text><text font-family="Times New Roman,Times New Roman_MSFontService,sans-serif" font-weight="400" font-size="27" transform="translate(119.256 867)">Regularization lambda</text><text font-family="Times New Roman,Times New Roman_MSFontService,sans-serif" font-weight="400" font-size="27" transform="translate(500.062 867)">0.01</text><text font-family="Yu Gothic,Yu Gothic_MSFontService,sans-serif" font-weight="400" font-size="32" transform="translate(64.5887 44)">ＸＸ商店ＹＹ支店</text><path d="M64.6754 46.527 128.675 46.527 192.675 46.527 256.675 46.527 320.675 46.527 320.675 48.527 256.675 48.527 192.675 48.527 128.675 48.527 64.6754 48.527Z" fill-rule="evenodd"/><path d="M195 49.5 195 87.3544 192 87.3544 192 49.5001ZM198 85.8544 193.5 94.8544 189 85.8544Z"/><text font-family="Times New Roman,Times New Roman_MSFontService,sans-serif" font-weight="400" font-size="21" transform="translate(345.307 81)">Split Words (&amp; Normalize)</text><text font-family="Times New Roman,Times New Roman_MSFontService,sans-serif" font-weight="400" font-size="21" transform="translate(347.107 157)">Vectorize</text><path d="M305.5 149.5 332.209 149.5" stroke="#000000" stroke-width="1.33333" stroke-miterlimit="8" fill="none" fill-rule="evenodd"/><path d="M193.5 73.5001 331.594 73.5002" stroke="#000000" stroke-width="1.33333" stroke-miterlimit="8" fill="none" fill-rule="evenodd"/><path d="M0 0 43.4138 54.0002" stroke="#4472C4" stroke-width="3" stroke-miterlimit="8" fill="none" fill-rule="evenodd" transform="matrix(1 0 0 -1 611.5 163.5)"/><path d="M7.49999-1.49999 83.5288-1.49989 83.5288 1.5001 7.49999 1.50001ZM8.99999 4.50001 0 0 9.00001-4.49999Z" fill="#4472C4" transform="matrix(-1 0 0 1 738.029 109.5)"/><text font-family="Times New Roman,Times New Roman_MSFontService,sans-serif" font-weight="400" font-size="21" transform="translate(741.284 116)">Dropout</text><path d="M870.5 856.5 870.5 958.547" stroke="#000000" stroke-width="3" stroke-miterlimit="8" fill="none" fill-rule="evenodd"/><path d="M7.49993-1.49999 109.606-1.49989 109.606 1.5001 7.49993 1.50001ZM9 4.50001 0 0 9-4.49999Z" transform="matrix(-1 0 0 1 980.106 958.5)"/><text font-family="Times New Roman,Times New Roman_MSFontService,sans-serif" font-weight="400" font-size="21" transform="translate(987.099 966)">Dropout</text><path d="M7.5-1.49998 34.0158-1.49989 34.0157 1.5001 7.49999 1.50002ZM8.99999 4.50003 0 0 9.00001-4.49997Z" transform="matrix(-1 0 0 1 1143.52 725.5)"/><text font-family="Times New Roman,Times New Roman_MSFontService,sans-serif" font-weight="400" font-size="21" transform="translate(1181.6 898)">Output</text><path d="M1160.5 586.5 1262.55 586.5" stroke="#000000" stroke-width="0.666667" stroke-miterlimit="8" fill="none" fill-rule="evenodd"/><rect x="1161" y="617" width="102" height="38" fill="#FF644C"/><rect x="1161" y="661" width="44" height="38" fill="#F34CFF"/><rect x="1160" y="707" width="21" height="37" fill="#4C7CFF"/><rect x="1160" y="750" width="10" height="38" fill="#4CFFAB"/><rect x="1160" y="794" width="5" height="38" fill="#C3FF4C"/><path d="M1160.5 586.5 1160.5 866.185" stroke="#000000" stroke-width="0.666667" stroke-miterlimit="8" fill="none" fill-rule="evenodd"/><text font-family="Times New Roman,Times New Roman_MSFontService,sans-serif" font-weight="400" font-size="21" transform="translate(1165.1 577)">Probabilities</text><text font-family="Times New Roman,Times New Roman_MSFontService,sans-serif" font-weight="400" font-size="21" transform="translate(1219.02 643)">80%</text><text font-family="Times New Roman,Times New Roman_MSFontService,sans-serif" font-weight="400" font-size="21" transform="translate(1165.04 688)">11%</text><text font-family="Times New Roman,Times New Roman_MSFontService,sans-serif" font-weight="400" font-size="21" transform="translate(1190.99 733)">5%</text><text font-family="Times New Roman,Times New Roman_MSFontService,sans-serif" font-weight="400" font-size="21" transform="translate(1182.65 777)">3%</text><text font-family="Times New Roman,Times New Roman_MSFontService,sans-serif" font-weight="400" font-size="21" transform="translate(1176.47 820)">1%</text><rect x="1128.5" y="290.5" width="24" height="24" stroke="#548235" stroke-width="1.33333" stroke-miterlimit="8" fill="#70AD47"/><text fill="#385723" font-family="Times New Roman,Times New Roman_MSFontService,sans-serif" font-weight="400" font-size="24" transform="translate(836.597 384)">Kernel</text></g></svg>